<?xml version="1.0" standalone="no"?>
<!DOCTYPE svg PUBLIC "-//W3C//DTD SVG 20010904//EN"
 "http://www.w3.org/TR/2001/REC-SVG-20010904/DTD/svg10.dtd">
<svg version="1.0" xmlns="http://www.w3.org/2000/svg"
 width="1726.000000pt" height="1726.000000pt" viewBox="0 0 1726.000000 1726.000000"
 preserveAspectRatio="xMidYMid meet">
<metadata>
Created by potrace 1.11, written by Peter Selinger 2001-2013
</metadata>
<g transform="translate(0.000000,1726.000000) scale(0.100000,-0.100000)"
fill="#000000" stroke="none">
<path d="M8287 16834 c-1 -1 -72 -5 -157 -8 -205 -9 -351 -19 -450 -31 -19 -3
-60 -7 -90 -10 -53 -5 -80 -8 -165 -21 -22 -3 -51 -7 -65 -9 -27 -3 -98 -13
-145 -21 -16 -3 -37 -7 -45 -9 -8 -2 -35 -7 -60 -10 -25 -3 -52 -8 -60 -10 -8
-2 -31 -7 -50 -10 -19 -3 -42 -8 -50 -10 -8 -2 -28 -7 -45 -10 -16 -2 -41 -7
-55 -10 -14 -3 -34 -8 -45 -10 -138 -31 -318 -75 -345 -86 -14 -5 -34 -11 -45
-13 -11 -2 -40 -10 -65 -17 -25 -7 -47 -13 -50 -14 -3 -1 -39 -12 -80 -25 -41
-13 -80 -24 -86 -26 -22 -4 -169 -55 -186 -65 -10 -5 -22 -9 -27 -9 -5 0 -22
-5 -38 -12 -15 -6 -32 -12 -38 -14 -12 -3 -127 -47 -170 -65 -16 -7 -32 -13
-35 -13 -8 -2 -159 -65 -210 -88 -25 -11 -54 -24 -65 -28 -50 -21 -498 -243
-565 -281 -108 -59 -304 -175 -380 -224 -36 -23 -73 -44 -82 -48 -10 -3 -18
-11 -18 -17 0 -5 -6 -10 -13 -10 -7 0 -23 -9 -35 -20 -12 -11 -24 -20 -27 -20
-12 0 -389 -267 -473 -335 -9 -7 -78 -62 -152 -121 -350 -277 -761 -664 -1090
-1028 -132 -146 -150 -170 -145 -198 2 -9 6 -48 10 -85 3 -37 8 -79 10 -93 2
-14 6 -55 10 -91 3 -36 7 -76 10 -90 2 -13 6 -44 9 -69 4 -25 8 -56 11 -70 2
-14 7 -45 10 -70 2 -25 7 -56 9 -70 6 -33 16 -96 21 -140 3 -19 7 -44 9 -55 5
-25 34 -180 41 -220 2 -16 7 -41 10 -55 3 -14 7 -36 10 -50 3 -14 7 -36 10
-50 3 -14 10 -45 15 -70 13 -64 16 -77 35 -155 9 -38 18 -77 20 -85 4 -18 69
-263 79 -295 1 -5 11 -37 21 -70 10 -33 20 -64 21 -70 12 -62 194 -556 214
-580 5 -5 9 -13 9 -18 2 -29 170 -372 251 -513 114 -197 250 -391 395 -565 89
-107 101 -119 102 -97 1 13 11 72 19 112 2 11 7 36 10 55 8 49 13 70 18 89 3
9 7 34 11 56 3 21 7 41 9 45 2 3 7 22 10 41 5 33 11 58 20 98 3 9 16 64 30
122 14 58 35 141 46 185 12 44 23 87 25 95 2 8 8 29 15 45 6 17 10 30 9 30 -1
0 1 9 4 20 99 351 297 898 438 1213 52 115 64 142 91 202 75 165 276 558 350
683 15 26 28 50 28 52 0 7 207 350 267 443 29 45 53 85 53 88 0 3 9 14 20 26
11 12 20 28 20 35 0 7 4 13 9 13 5 0 14 14 21 30 7 17 15 30 19 30 4 0 15 15
26 33 40 68 220 315 384 527 415 536 920 1051 1431 1461 58 46 110 87 115 92
271 218 834 578 1128 721 31 15 57 31 57 34 0 6 -116 12 -123 6z"/>
<path d="M8970 16820 c0 -3 37 -24 83 -48 553 -284 1167 -723 1687 -1207 93
-86 434 -427 510 -510 188 -204 297 -331 461 -535 226 -280 396 -514 587 -805
61 -93 116 -175 122 -182 5 -7 10 -14 10 -17 0 -2 42 -73 93 -158 105 -171
159 -266 277 -483 101 -186 350 -699 349 -720 0 -3 7 -18 15 -33 22 -39 111
-257 203 -497 8 -22 19 -49 23 -60 5 -11 19 -49 31 -85 12 -36 31 -90 41 -120
11 -30 21 -62 23 -70 2 -8 4 -16 5 -17 2 -2 3 -6 5 -10 1 -5 4 -15 8 -23 14
-37 126 -414 142 -480 10 -40 36 -147 40 -162 3 -10 7 -27 10 -39 2 -11 6 -28
9 -37 3 -9 8 -28 10 -42 14 -68 37 -178 41 -200 7 -37 16 -83 20 -100 2 -8 4
-22 4 -30 1 -20 38 21 127 140 165 221 299 430 422 660 19 36 47 88 62 115 30
57 171 364 174 380 1 5 12 32 24 59 12 27 22 54 22 61 0 6 3 15 7 19 6 6 27
57 38 96 3 8 25 72 49 143 24 70 44 129 45 130 0 1 2 9 4 17 3 8 8 24 10 35 3
11 15 54 27 95 12 41 24 85 26 97 2 12 9 34 14 48 5 14 7 25 5 25 -2 0 0 11 5
26 6 14 12 37 15 52 3 15 7 38 10 52 10 45 15 65 19 88 3 13 7 31 10 40 3 9 7
33 10 52 3 19 8 46 11 60 3 14 8 45 11 69 3 25 7 48 9 51 2 4 7 32 10 64 4 31
8 67 11 79 2 12 6 40 9 62 2 22 7 63 10 90 23 206 37 427 39 655 l3 175 -71
80 c-77 86 -539 552 -621 625 -28 25 -89 79 -135 122 -69 62 -310 267 -395
336 -157 127 -529 402 -545 402 -5 0 -10 5 -10 10 0 6 -6 10 -14 10 -8 0 -16
4 -18 9 -3 9 -204 142 -373 246 -356 220 -852 468 -1227 614 -13 5 -36 14 -53
21 -39 16 -275 101 -295 105 -8 3 -35 12 -60 21 -25 9 -52 17 -60 19 -8 2 -35
10 -60 18 -70 24 -255 76 -291 82 -18 3 -35 8 -39 10 -3 2 -17 6 -31 8 -13 3
-53 13 -89 22 -64 17 -80 20 -130 30 -14 3 -34 7 -45 9 -40 9 -231 45 -265 50
-19 3 -44 8 -56 10 -12 2 -45 7 -74 11 -29 4 -62 9 -74 11 -12 2 -43 6 -71 9
-27 3 -68 8 -90 10 -46 5 -150 15 -215 20 -188 16 -640 27 -640 15z"/>
<path d="M8709 16524 c-1 -21 -3 -38 -13 -99 -3 -22 -8 -60 -11 -85 -3 -25 -8
-56 -10 -70 -5 -31 -13 -92 -20 -145 -3 -22 -7 -49 -9 -60 -2 -11 -7 -49 -11
-85 -4 -36 -8 -67 -10 -70 -1 -3 -6 -32 -10 -65 -10 -82 -13 -104 -20 -150 -3
-22 -8 -58 -10 -80 -3 -22 -7 -51 -9 -65 -3 -14 -8 -44 -11 -67 -8 -68 -16
-126 -20 -153 -2 -14 -7 -45 -10 -70 -3 -25 -8 -56 -10 -70 -4 -25 -10 -69
-21 -150 -3 -25 -8 -56 -10 -70 -2 -14 -6 -45 -9 -70 -3 -25 -7 -54 -9 -66 -2
-12 -7 -45 -11 -75 -3 -30 -9 -67 -11 -84 -7 -42 -13 -83 -19 -135 -3 -25 -7
-56 -10 -69 -2 -14 -7 -45 -10 -70 -3 -25 -7 -57 -10 -70 -2 -14 -7 -47 -11
-75 -3 -28 -7 -60 -9 -71 -2 -11 -6 -40 -9 -65 -11 -81 -17 -125 -21 -150 -6
-36 -24 -172 -30 -220 -1 -14 -5 -43 -9 -65 -3 -22 -8 -56 -10 -75 -3 -19 -7
-48 -10 -65 -3 -16 -7 -52 -11 -80 -3 -27 -7 -61 -10 -74 -2 -14 -7 -47 -10
-75 -3 -28 -8 -58 -10 -66 -2 -8 -7 -40 -11 -70 -11 -99 -12 -105 -17 -135 -3
-16 -8 -52 -12 -80 -3 -27 -7 -61 -10 -74 -2 -14 -7 -47 -11 -75 -3 -28 -7
-60 -9 -71 -1 -11 -6 -42 -10 -70 -3 -27 -8 -61 -10 -75 -9 -56 -18 -126 -18
-137 0 -7 -5 -13 -11 -13 -13 0 -161 44 -198 59 -16 6 -28 8 -28 5 0 -4 -6 -2
-12 4 -7 6 -17 11 -23 11 -19 3 -150 42 -190 57 -22 9 -42 16 -45 15 -3 0 -23
5 -45 11 -22 6 -42 12 -45 13 -3 1 -32 10 -65 20 -33 10 -60 16 -60 15 0 -2
-9 2 -21 8 -11 6 -32 13 -45 16 -13 3 -105 30 -204 61 -221 68 -283 87 -290
86 -2 0 -20 6 -40 15 -19 8 -35 11 -35 8 0 -4 -6 -2 -12 4 -11 8 -46 19 -88
27 -3 0 -34 10 -70 22 -36 12 -99 31 -140 43 -41 13 -99 31 -127 41 -29 10
-53 17 -53 14 0 -2 -16 3 -35 11 -19 8 -38 15 -42 15 -15 3 -125 35 -303 90
-183 56 -526 160 -595 180 -38 11 -83 25 -98 31 -15 6 -30 9 -33 6 -8 -9 93
-102 291 -267 11 -9 61 -45 110 -81 50 -36 92 -68 95 -71 6 -8 552 -374 655
-438 209 -132 698 -456 800 -530 39 -28 81 -59 94 -68 169 -123 455 -369 446
-383 -3 -4 -105 -79 -227 -166 -123 -87 -227 -162 -233 -166 -5 -5 -44 -32
-85 -61 -41 -30 -311 -222 -600 -427 -289 -205 -615 -438 -725 -516 -110 -79
-246 -176 -303 -216 -56 -40 -122 -87 -145 -104 -46 -33 -781 -556 -835 -593
-55 -38 -55 -38 158 18 63 17 135 37 160 45 25 8 77 23 115 34 145 42 252 75
330 99 44 14 87 26 95 28 8 2 40 11 70 20 72 22 79 24 85 25 3 0 24 8 47 16
24 9 54 18 67 20 14 3 29 8 35 12 6 3 16 7 22 8 6 1 78 23 160 49 82 25 155
48 162 51 7 2 13 3 15 3 1 0 36 12 77 26 41 15 82 28 90 30 8 2 71 22 140 45
69 23 132 43 140 45 8 2 58 18 110 35 52 18 102 33 110 35 8 2 40 12 70 23 30
11 210 70 400 132 371 120 385 124 415 136 11 4 26 8 33 10 8 1 21 6 30 10 9
4 22 8 27 9 6 2 105 34 220 72 116 38 325 107 465 152 253 82 268 87 282 90 4
1 31 10 59 20 l51 17 122 -42 c66 -23 128 -44 136 -47 23 -8 784 -259 795
-261 6 -2 17 -6 25 -9 18 -7 138 -47 160 -52 8 -3 130 -43 270 -91 140 -47
260 -87 265 -88 6 -1 244 -80 530 -175 286 -96 525 -174 530 -176 6 -1 17 -5
25 -8 27 -10 115 -37 122 -37 4 0 28 -9 53 -20 25 -11 47 -20 50 -20 7 -1 20
-5 125 -40 52 -18 100 -33 105 -35 6 -1 17 -5 25 -8 25 -10 204 -68 220 -72 8
-2 39 -13 68 -24 29 -11 55 -20 57 -21 11 -2 43 -12 290 -93 210 -69 254 -81
230 -61 -16 13 -133 98 -260 189 -126 91 -234 168 -240 173 -5 4 -109 79 -230
166 -121 88 -301 218 -400 289 -99 72 -211 153 -250 180 -38 27 -92 66 -120
87 -27 20 -135 98 -240 173 -104 75 -194 140 -200 145 -5 4 -116 83 -245 177
-129 93 -237 171 -240 174 -3 3 -13 11 -22 16 -9 6 -56 39 -105 74 -48 36
-142 103 -208 151 -364 263 -421 303 -430 311 -11 10 -9 12 230 200 94 73 177
139 185 146 58 46 156 124 365 288 132 104 247 195 255 202 8 8 53 43 100 80
47 36 101 78 120 94 38 31 345 273 479 378 92 73 487 385 511 404 8 7 41 32
73 57 31 25 53 46 47 48 -5 2 -34 -4 -62 -14 -29 -10 -55 -19 -58 -19 -6 -1
-130 -38 -240 -73 -47 -14 -87 -27 -90 -27 -20 -5 -104 -29 -150 -44 -73 -24
-168 -52 -175 -52 -3 1 -29 -8 -57 -18 -29 -10 -87 -29 -128 -41 -41 -12 -95
-29 -120 -37 -25 -8 -52 -16 -60 -18 -8 -2 -62 -18 -120 -36 -58 -18 -109 -34
-115 -35 -5 -1 -77 -23 -160 -49 -82 -26 -154 -48 -160 -49 -18 -5 -129 -37
-145 -42 -8 -3 -16 -5 -18 -5 -1 1 -18 -5 -37 -13 -19 -8 -35 -12 -35 -9 0 3
-6 1 -12 -5 -7 -6 -17 -11 -23 -11 -16 -2 -88 -21 -105 -28 -8 -3 -19 -7 -25
-8 -10 -3 -43 -13 -195 -60 -47 -14 -92 -28 -100 -30 -19 -5 -405 -123 -445
-136 -50 -17 -62 -18 -62 -6 0 7 -3 39 -7 72 -13 120 -15 141 -21 205 -3 36
-8 81 -10 100 -3 19 -7 59 -10 88 -3 28 -7 73 -10 100 -9 88 -14 137 -20 197
-7 64 -12 106 -20 170 -2 22 -7 65 -10 95 -3 30 -8 71 -10 91 -5 34 -8 62 -20
171 -3 26 -7 65 -10 85 -5 37 -14 112 -20 163 -2 14 -6 52 -9 85 -4 33 -9 76
-12 95 -3 19 -7 55 -10 80 -2 25 -6 60 -9 78 -8 51 -14 93 -20 147 -3 28 -8
61 -10 75 -2 14 -7 45 -9 70 -8 75 -16 134 -21 160 -3 14 -7 45 -10 70 -7 62
-17 132 -20 151 -2 9 -6 40 -10 69 -4 29 -9 62 -11 74 -2 12 -6 41 -9 66 -3
25 -8 56 -10 70 -3 14 -7 43 -10 65 -3 22 -7 49 -9 61 -2 12 -7 45 -11 74 -4
29 -9 62 -11 74 -2 11 -6 36 -9 56 -3 20 -8 47 -10 60 -3 14 -8 45 -11 70 -3
25 -7 52 -9 60 -5 16 -11 52 -20 115 -3 23 -8 52 -10 65 -3 14 -8 41 -11 60
-8 49 -13 81 -18 107 -3 11 -8 43 -12 70 -5 26 -9 50 -9 53 -1 3 -5 25 -9 50
-5 25 -10 54 -12 65 -2 11 -7 33 -10 50 -6 36 -14 45 -15 19z"/>
<path d="M2002 13433 c-154 -162 -313 -374 -450 -600 -75 -125 -259 -481 -306
-593 -10 -25 -28 -65 -39 -90 -38 -88 -46 -106 -92 -220 -26 -63 -48 -119 -49
-125 -1 -5 -10 -27 -19 -49 -9 -21 -17 -44 -17 -50 0 -7 -4 -16 -9 -22 -7 -8
-31 -71 -37 -99 -1 -5 -10 -28 -19 -50 -10 -22 -35 -89 -56 -148 l-39 -109 5
-166 c3 -92 7 -192 9 -222 9 -125 17 -227 21 -250 2 -14 6 -55 10 -92 3 -37 7
-75 9 -85 2 -10 7 -40 10 -68 4 -27 9 -62 11 -77 26 -153 32 -189 40 -228 3
-14 7 -36 10 -50 3 -14 7 -36 10 -50 3 -14 8 -36 10 -50 2 -14 20 -90 40 -170
19 -80 38 -153 40 -164 20 -85 147 -495 172 -556 3 -8 7 -19 9 -25 1 -5 12
-35 24 -65 12 -30 25 -66 30 -80 8 -25 36 -95 64 -162 9 -21 16 -40 17 -43 0
-2 15 -37 33 -77 18 -40 43 -98 57 -128 67 -154 322 -647 347 -672 7 -7 12
-16 12 -20 0 -21 252 -416 395 -618 48 -69 148 -203 155 -210 3 -3 17 -21 30
-40 13 -19 27 -37 30 -40 3 -3 32 -39 64 -80 325 -411 774 -857 1186 -1180
163 -128 160 -126 299 -223 166 -117 165 -117 157 -81 -3 16 -8 34 -10 39 -1
6 -6 24 -10 40 -4 17 -14 47 -22 68 -8 20 -11 37 -9 37 3 0 1 8 -4 19 -6 10
-13 31 -15 47 -3 16 -15 61 -26 99 -12 39 -23 77 -25 85 -40 146 -133 496
-141 533 -2 9 -6 26 -9 37 -3 11 -8 30 -11 42 -3 13 -6 28 -8 33 -2 6 -7 28
-11 50 -5 22 -10 42 -10 45 -21 83 -54 223 -60 257 -3 18 -12 61 -20 95 -8 35
-16 77 -19 93 -3 17 -8 41 -11 55 -3 14 -8 39 -10 55 -3 17 -8 37 -10 45 -2 8
-6 31 -9 50 -3 19 -8 49 -11 65 -15 83 -36 211 -40 252 -5 39 -14 101 -20 133
-4 21 -11 78 -20 165 -1 17 -6 62 -10 100 -25 243 -30 354 -30 710 0 306 4
413 20 590 6 75 15 150 19 170 2 11 7 49 11 85 4 36 9 74 11 85 7 43 13 82 19
117 3 21 2 43 -4 50 -141 172 -439 588 -588 824 -27 43 -179 290 -189 309 -6
11 -24 43 -39 70 -64 112 -109 197 -179 340 -77 156 -130 270 -126 270 2 0 -6
18 -17 40 -31 62 -178 442 -188 486 -2 9 -11 39 -20 65 -9 27 -18 56 -20 64
-3 8 -11 40 -20 70 -9 30 -27 100 -41 155 -13 55 -27 111 -31 125 -3 14 -7 27
-8 30 -4 17 -18 87 -19 95 -2 10 -14 77 -22 120 -14 68 -27 160 -39 270 -4 33
-9 74 -11 90 -9 78 -18 240 -18 333 0 57 -5 102 -10 102 -5 0 -43 -35 -84 -77z"/>
<path d="M15369 13288 c-3 -198 -22 -419 -54 -606 -9 -52 -35 -188 -39 -207
-2 -5 -6 -28 -11 -50 -4 -22 -14 -65 -22 -95 -8 -30 -23 -86 -33 -125 -9 -38
-37 -128 -61 -200 -24 -71 -44 -132 -44 -135 -8 -28 -132 -334 -167 -410 -80
-173 -219 -443 -275 -532 -12 -21 -23 -40 -23 -42 0 -8 -199 -327 -285 -456
-78 -117 -250 -364 -293 -420 -195 -256 -276 -369 -275 -385 0 -11 3 -45 7
-75 4 -30 9 -68 11 -85 2 -16 6 -52 10 -80 3 -27 8 -75 11 -105 2 -30 6 -73 9
-95 28 -265 28 -992 0 -1295 -2 -19 -6 -69 -9 -110 -4 -41 -9 -88 -11 -105 -2
-16 -7 -57 -10 -91 -3 -33 -8 -71 -10 -85 -2 -13 -7 -44 -10 -69 -2 -25 -7
-56 -10 -70 -2 -14 -7 -45 -9 -70 -3 -25 -7 -55 -10 -66 -2 -12 -7 -37 -10
-55 -3 -19 -8 -51 -11 -73 -4 -21 -9 -48 -11 -60 -2 -11 -7 -36 -10 -55 -3
-18 -8 -43 -10 -55 -2 -11 -6 -32 -9 -46 -8 -43 -14 -74 -20 -100 -3 -14 -7
-34 -9 -45 -2 -11 -11 -50 -20 -86 -8 -37 -17 -78 -20 -90 -3 -13 -8 -35 -11
-49 -3 -14 -8 -36 -11 -49 -3 -14 -14 -57 -25 -97 -11 -40 -22 -82 -24 -94 -3
-11 -7 -29 -10 -40 -8 -32 -16 -64 -20 -80 -2 -8 -4 -15 -5 -15 -1 0 -3 -7 -5
-15 -2 -8 -11 -40 -20 -70 -9 -30 -18 -62 -20 -70 -32 -120 -171 -541 -238
-722 -14 -38 -23 -68 -20 -68 8 0 307 226 409 310 445 365 834 751 1204 1195
97 116 356 458 406 535 16 25 32 47 35 50 6 5 175 262 216 330 154 251 325
566 422 780 101 221 112 247 151 345 42 106 47 119 48 125 1 3 15 38 31 78 16
39 27 72 24 72 -3 0 -1 6 5 13 9 12 119 341 127 381 2 11 4 22 6 24 1 1 2 5 3
10 2 4 8 27 15 52 7 25 14 50 15 55 1 6 5 19 9 30 3 11 8 31 11 45 8 40 13 62
26 110 7 25 13 50 15 55 1 6 5 17 8 25 13 33 46 138 58 180 7 25 14 50 15 55
52 182 87 448 88 665 0 99 -16 314 -29 380 -3 14 -8 42 -11 64 -3 21 -8 48
-10 60 -2 11 -6 32 -9 46 -4 23 -61 242 -68 265 -2 6 -11 33 -20 60 -83 257
-206 528 -369 810 -93 163 -237 388 -249 393 -5 2 -9 8 -9 13 0 18 -402 569
-415 569 -3 0 -6 -37 -6 -82z"/>
<path d="M639 10344 c0 -5 -3 -18 -5 -29 -3 -11 -7 -29 -8 -40 -2 -11 -9 -38
-14 -60 -6 -22 -14 -53 -16 -70 -3 -16 -8 -41 -11 -55 -3 -14 -8 -38 -10 -55
-3 -16 -8 -37 -10 -45 -2 -8 -7 -33 -10 -55 -3 -23 -7 -52 -10 -65 -3 -13 -7
-40 -10 -60 -3 -20 -8 -47 -10 -60 -3 -14 -7 -43 -10 -65 -2 -22 -6 -49 -9
-60 -5 -26 -17 -128 -30 -250 -4 -33 -9 -82 -12 -110 -21 -203 -29 -400 -29
-765 0 -322 4 -446 20 -640 14 -169 16 -192 30 -297 3 -21 7 -58 10 -83 9 -73
13 -103 19 -135 3 -16 7 -48 11 -70 3 -23 8 -52 10 -65 3 -14 8 -45 11 -70 3
-25 8 -48 10 -51 2 -4 6 -24 10 -44 3 -21 8 -47 10 -59 2 -11 6 -32 9 -46 10
-53 14 -72 19 -88 3 -9 8 -30 11 -47 13 -66 16 -82 27 -120 5 -22 12 -48 14
-58 2 -10 6 -27 9 -37 3 -10 7 -27 9 -37 7 -34 44 -167 85 -303 185 -624 432
-1184 806 -1830 27 -47 52 -87 55 -90 3 -3 28 -41 55 -85 184 -299 537 -771
773 -1035 158 -176 186 -207 216 -237 17 -17 72 -73 121 -123 209 -214 470
-450 705 -639 63 -51 124 -99 134 -108 135 -110 538 -389 731 -507 61 -36 117
-71 125 -76 8 -6 26 -16 40 -22 14 -7 27 -15 30 -19 5 -5 56 -34 200 -114 88
-48 480 -244 555 -277 84 -37 140 -61 215 -93 114 -48 144 -60 150 -61 3 0 21
-7 42 -16 52 -23 282 -108 305 -113 10 -2 34 -10 53 -18 19 -8 38 -16 42 -16
4 -1 13 -3 20 -6 49 -16 148 -46 150 -45 2 1 17 -4 33 -10 17 -7 44 -16 60
-21 17 -4 46 -12 65 -18 109 -30 196 -53 205 -55 6 -1 19 -5 30 -9 11 -3 31
-8 45 -11 14 -3 35 -7 48 -10 12 -4 31 -8 43 -11 11 -2 28 -6 37 -9 9 -3 29
-8 45 -11 15 -3 37 -7 50 -10 12 -3 32 -7 45 -9 13 -3 31 -7 40 -10 9 -3 33
-7 52 -10 19 -3 46 -8 60 -11 14 -3 39 -7 55 -10 17 -3 44 -8 60 -12 17 -3 39
-7 50 -9 42 -6 81 -13 110 -18 46 -8 136 -20 225 -31 25 -3 61 -8 80 -10 75
-10 180 -20 310 -31 137 -10 183 -13 365 -19 176 -5 180 -5 157 13 -13 10 -40
27 -60 38 -21 10 -39 21 -42 24 -3 3 -41 28 -85 55 -231 142 -622 417 -885
624 -449 351 -811 673 -1224 1091 -320 324 -492 513 -768 845 -107 129 -345
440 -443 580 -27 39 -52 72 -55 75 -6 5 -123 182 -212 320 -63 96 -198 320
-198 326 0 2 -11 21 -23 42 -24 36 -116 207 -146 269 -12 23 -50 52 -149 112
-73 45 -137 81 -142 81 -4 0 -10 3 -12 8 -1 4 -50 38 -108 77 -707 466 -1416
1162 -1925 1890 -27 39 -52 72 -56 75 -3 3 -8 10 -10 15 -2 6 -47 75 -100 155
-114 173 -241 385 -351 585 -93 167 -388 792 -388 820 0 3 -9 24 -19 48 -41
89 -201 534 -216 597 -1 3 -9 32 -20 65 -21 69 -18 59 -45 150 -12 39 -23 77
-25 85 -2 8 -13 51 -25 95 -25 93 -29 111 -36 145 -3 14 -10 43 -16 65 -5 22
-12 48 -14 57 -2 10 -6 28 -9 41 -3 12 -8 36 -11 52 -2 17 -9 46 -14 65 -5 19
-12 52 -16 74 -3 21 -8 48 -10 60 -2 11 -7 35 -10 51 -2 17 -7 41 -9 55 -3 14
-7 36 -10 50 -2 13 -7 42 -11 65 -5 38 -13 59 -15 39z"/>
<path d="M16790 10185 c-1 -16 -3 -37 -4 -45 -2 -8 -6 -37 -10 -65 -3 -27 -8
-59 -10 -70 -2 -11 -7 -40 -10 -65 -6 -44 -10 -68 -21 -120 -3 -14 -7 -38 -10
-55 -4 -24 -12 -62 -20 -95 -1 -5 -22 -102 -30 -137 -3 -13 -7 -32 -10 -43 -3
-11 -7 -29 -10 -40 -3 -11 -7 -29 -10 -40 -8 -32 -40 -150 -59 -215 -1 -5 -8
-30 -15 -55 -21 -74 -125 -379 -141 -415 -5 -11 -19 -47 -31 -80 -93 -258
-303 -698 -478 -1003 -452 -787 -1065 -1523 -1781 -2142 -52 -45 -109 -94
-125 -108 -172 -153 -641 -503 -920 -686 -70 -46 -98 -72 -126 -115 -103 -157
-616 -930 -679 -1021 -205 -297 -493 -686 -665 -895 -269 -329 -646 -723 -935
-980 -80 -70 -161 -142 -180 -159 -19 -17 -64 -55 -100 -84 -36 -29 -74 -61
-85 -70 -11 -10 -74 -60 -140 -112 -66 -52 -122 -97 -125 -100 -3 -3 -50 -39
-105 -80 -55 -41 -104 -78 -110 -83 -56 -46 -585 -416 -745 -522 -41 -27 -77
-52 -80 -55 -3 -4 -24 -17 -47 -30 -24 -13 -43 -27 -43 -32 0 -12 332 5 535
27 17 2 59 6 95 9 62 7 83 9 165 21 19 3 52 7 73 10 39 5 98 13 147 22 17 2
43 6 59 8 15 3 35 6 45 9 9 3 36 8 61 11 25 4 72 13 105 20 33 8 76 17 95 20
19 3 82 17 140 31 58 14 115 27 126 30 41 8 258 65 266 70 4 3 17 7 28 9 52
10 478 148 550 178 14 6 28 11 32 11 3 1 10 4 14 9 4 4 13 7 19 7 7 0 30 8 51
17 22 9 41 17 44 18 10 1 176 69 200 82 14 7 28 13 32 13 3 0 39 15 80 34 40
18 96 44 123 56 414 186 949 498 1356 792 143 103 413 310 429 328 3 3 47 41
97 83 293 247 587 533 884 862 94 103 349 415 434 530 16 22 33 45 38 50 82
100 342 487 479 715 99 165 119 200 198 344 52 95 203 395 239 476 74 165 101
226 106 240 1 3 12 28 24 55 13 28 24 55 26 60 1 6 9 27 19 47 9 21 16 40 16
44 0 3 7 20 15 37 29 62 209 577 219 625 1 9 6 24 9 32 6 16 26 90 27 102 0 4
7 26 15 49 9 23 17 51 20 63 2 12 18 77 35 146 35 138 38 151 45 181 2 11 6
28 9 37 3 9 8 33 11 52 3 19 8 42 10 50 2 8 7 29 10 45 5 29 9 51 20 105 3 14
9 50 15 80 9 53 12 72 25 150 3 19 7 46 10 60 3 14 7 45 10 69 3 23 7 55 9 70
6 36 15 105 22 176 3 33 8 74 9 90 42 377 50 914 20 1355 -2 30 -6 78 -9 105
-3 28 -8 80 -11 116 -3 37 -8 77 -10 90 -3 13 -7 48 -10 79 -3 31 -8 67 -10
80 -3 14 -8 45 -11 70 -3 25 -7 59 -10 75 -3 17 -7 39 -9 50 -8 62 -17 110
-20 115 -2 3 -6 30 -10 60 -8 67 -24 100 -25 55z"/>
<path d="M4021 9182 c-1 -21 -4 -53 -6 -72 -29 -262 -24 -793 10 -1129 4 -36
9 -86 11 -111 8 -84 23 -208 29 -240 2 -14 7 -49 10 -79 4 -30 9 -63 11 -75 2
-12 7 -41 10 -66 3 -25 7 -52 9 -60 3 -8 7 -33 10 -55 4 -22 8 -51 11 -65 2
-14 7 -40 10 -59 3 -18 8 -43 10 -55 2 -11 7 -37 10 -56 3 -19 12 -66 21 -105
8 -38 16 -79 18 -90 6 -33 15 -79 20 -95 2 -8 7 -28 10 -45 4 -28 9 -51 19
-92 5 -22 35 -159 42 -190 2 -12 9 -34 14 -48 5 -14 8 -25 5 -25 -2 0 3 -23
11 -52 9 -28 17 -60 19 -70 2 -10 11 -46 20 -81 9 -34 18 -71 21 -82 2 -11 18
-69 34 -130 34 -122 39 -139 46 -174 3 -13 9 -32 15 -43 5 -10 7 -18 5 -18 -3
0 -1 -12 5 -27 6 -16 13 -38 15 -51 3 -13 12 -44 20 -69 9 -26 18 -58 20 -71
3 -14 10 -35 16 -46 6 -12 10 -21 9 -21 -5 0 18 -82 57 -205 20 -63 35 -118
34 -121 -4 -18 261 -239 287 -239 5 0 11 -3 13 -8 3 -7 63 -48 154 -105 169
-105 549 -281 807 -373 96 -34 368 -125 387 -129 8 -2 35 -10 60 -18 25 -8 81
-25 125 -37 114 -31 227 -61 248 -66 9 -2 26 -6 37 -9 11 -3 29 -7 40 -10 44
-11 230 -54 265 -61 11 -2 31 -6 45 -10 14 -3 34 -7 45 -9 11 -2 31 -7 45 -10
14 -3 40 -8 59 -10 18 -3 37 -7 41 -10 4 -2 27 -7 51 -10 24 -3 51 -7 59 -10
8 -2 31 -7 50 -10 19 -3 46 -7 60 -10 14 -3 39 -7 55 -10 17 -3 41 -7 55 -10
14 -3 45 -8 70 -11 25 -3 52 -8 62 -9 9 -2 38 -6 65 -10 49 -7 81 -12 131 -19
24 -4 106 -14 172 -21 14 -1 48 -5 75 -9 53 -7 110 -13 190 -21 28 -2 75 -7
105 -10 l55 -5 0 1760 0 1760 -25 1 c-14 1 -63 2 -110 4 -81 2 -266 13 -340
20 -19 1 -69 6 -110 9 -41 3 -86 8 -100 11 -13 3 -49 7 -80 10 -31 3 -66 7
-80 10 -13 3 -42 7 -65 10 -38 6 -127 21 -171 29 -12 2 -37 7 -55 10 -43 7
-146 28 -199 41 -51 12 -68 16 -85 19 -11 3 -65 16 -120 31 -55 15 -122 33
-150 40 -27 7 -102 30 -165 50 -63 20 -119 38 -125 39 -5 2 -17 6 -25 9 -20 8
-152 57 -165 61 -33 10 -249 97 -305 123 -30 14 -59 26 -65 27 -24 4 -397 189
-503 250 -35 20 -66 36 -68 36 -3 0 -21 11 -42 24 -20 13 -89 54 -152 91 -63
37 -168 103 -233 146 -65 44 -122 79 -127 79 -6 0 -10 3 -10 8 0 4 -21 20 -48
37 -26 16 -54 35 -62 41 -8 7 -91 69 -185 139 -167 126 -347 270 -496 398
l-75 65 -3 -36z"/>
<path d="M13410 9195 c-19 -23 -289 -249 -395 -330 -49 -39 -94 -73 -100 -78
-33 -27 -239 -172 -350 -246 -232 -155 -569 -356 -667 -397 -21 -9 -38 -20
-38 -25 0 -5 -4 -9 -9 -9 -4 0 -91 -40 -192 -89 -101 -48 -224 -105 -274 -126
-49 -21 -109 -46 -132 -56 -23 -11 -44 -19 -46 -19 -3 0 -22 -8 -43 -17 -22
-9 -43 -18 -49 -19 -5 -2 -75 -27 -155 -57 -80 -29 -192 -68 -250 -86 -58 -18
-112 -35 -120 -38 -8 -3 -19 -7 -25 -8 -5 -2 -30 -9 -55 -16 -25 -7 -48 -13
-52 -15 -5 -1 -9 -2 -10 -4 -2 -1 -10 -3 -18 -5 -8 -2 -71 -18 -140 -35 -119
-30 -139 -35 -185 -45 -11 -3 -30 -7 -42 -10 -22 -5 -40 -9 -93 -20 -26 -6
-57 -12 -100 -20 -14 -3 -36 -7 -50 -10 -14 -3 -41 -8 -60 -11 -72 -11 -86
-13 -120 -19 -19 -4 -46 -8 -60 -10 -42 -4 -132 -17 -149 -20 -29 -5 -161 -20
-286 -31 -89 -7 -142 -11 -197 -13 l-38 -1 0 -1724 0 -1724 73 4 c299 13 338
16 478 28 152 14 186 17 214 20 17 2 57 7 90 10 33 3 71 8 84 11 14 2 45 7 70
10 47 6 87 11 143 21 44 7 65 10 113 18 23 3 52 9 65 11 14 3 43 8 64 10 21 3
42 8 46 10 4 2 22 7 41 10 19 3 48 8 64 12 17 3 37 8 45 9 8 1 26 5 40 8 14 3
34 8 45 10 11 2 43 10 70 16 28 6 61 14 75 16 14 3 34 8 45 11 11 4 25 8 30 9
51 14 93 25 110 29 11 3 52 14 90 25 39 12 77 23 85 25 8 2 44 13 80 24 36 11
67 20 70 20 3 -1 23 6 45 14 22 8 49 18 60 23 11 4 25 8 30 10 12 3 138 48
180 64 17 6 31 11 32 11 2 0 17 6 103 42 14 6 27 11 30 12 3 1 16 6 30 12 14
6 70 30 125 53 127 54 361 167 490 238 55 30 111 61 125 69 14 7 68 39 120 71
l95 57 86 175 c107 215 118 240 186 415 64 162 160 446 188 555 2 8 18 66 35
129 17 63 32 124 35 135 2 12 7 32 10 46 3 14 8 34 10 45 3 11 7 31 10 45 4
14 8 36 11 50 3 14 7 32 10 41 2 9 7 33 9 54 3 20 7 40 9 44 3 3 7 25 10 47 6
38 9 56 21 114 2 14 7 45 11 70 10 71 12 83 19 121 3 20 7 51 9 70 7 64 17
144 21 169 4 24 9 74 19 170 6 53 17 186 21 250 2 25 7 106 12 180 10 161 11
1001 1 1185 -4 72 -7 142 -7 158 -1 30 -12 35 -31 12z"/>
<path d="M4955 4422 c6 -4 22 -28 35 -54 14 -27 28 -48 32 -48 5 0 8 -5 8 -12
0 -6 23 -47 51 -92 29 -45 70 -110 93 -146 68 -107 223 -337 314 -465 729
-1022 1564 -1860 2404 -2416 143 -95 351 -219 366 -219 6 0 12 -4 14 -8 3 -9
274 -152 287 -152 7 0 8 2676 1 2683 -3 3 -45 8 -95 11 -49 4 -110 8 -135 11
-25 2 -81 7 -125 10 -44 4 -96 8 -115 10 -19 2 -70 6 -113 10 -44 4 -87 8 -97
10 -11 2 -50 7 -87 10 -37 4 -79 8 -93 11 -14 2 -50 6 -80 9 -30 4 -62 8 -70
10 -8 2 -41 7 -73 10 -32 4 -68 8 -80 11 -12 2 -42 7 -67 10 -25 3 -52 7 -60
9 -8 1 -35 6 -60 10 -25 4 -52 9 -60 10 -42 7 -106 19 -110 20 -3 1 -25 5 -50
9 -25 5 -54 10 -65 12 -11 3 -40 9 -65 14 -25 5 -56 12 -70 15 -14 2 -37 7
-52 11 -15 3 -30 5 -33 5 -2 0 -19 5 -37 10 -18 5 -44 11 -58 14 -14 3 -83 21
-155 40 -71 20 -139 38 -150 40 -11 3 -31 9 -45 14 -24 9 -138 44 -152 47 -5
1 -9 2 -10 3 -3 1 -191 68 -213 75 -5 1 -23 8 -40 15 -16 6 -43 16 -60 22 -16
6 -39 15 -50 20 -355 153 -491 220 -703 346 -64 37 -108 58 -77 35z"/>
<path d="M12365 4359 c-129 -80 -423 -228 -583 -294 -61 -25 -124 -51 -140
-57 -15 -6 -29 -12 -32 -12 -8 -2 -104 -37 -125 -46 -11 -5 -65 -23 -120 -40
-55 -17 -111 -35 -125 -40 -45 -16 -163 -49 -290 -81 -125 -31 -141 -35 -181
-44 -11 -2 -28 -6 -37 -9 -9 -3 -33 -8 -52 -11 -19 -3 -42 -8 -50 -10 -8 -2
-28 -7 -45 -10 -16 -2 -41 -7 -55 -10 -14 -4 -34 -8 -45 -10 -67 -11 -100 -17
-119 -21 -11 -3 -32 -7 -46 -9 -14 -2 -41 -7 -60 -10 -19 -4 -46 -8 -60 -10
-36 -4 -108 -15 -200 -30 -14 -2 -48 -7 -76 -10 -28 -3 -59 -7 -70 -9 -10 -2
-48 -7 -84 -11 -36 -4 -78 -9 -95 -11 -27 -3 -68 -8 -185 -19 -19 -2 -62 -6
-95 -9 -33 -3 -87 -8 -120 -11 -33 -3 -94 -8 -135 -11 -106 -9 -140 -12 -182
-13 l-38 -1 0 -1345 c0 -740 3 -1345 6 -1345 6 0 177 89 279 145 86 47 250
149 253 157 2 4 8 8 13 8 11 0 245 155 273 182 11 10 23 18 27 18 6 0 236 172
290 218 13 11 67 55 119 98 255 210 695 632 890 854 41 46 82 91 91 100 20 19
180 205 275 320 230 280 460 590 663 895 192 288 400 626 383 624 -4 -1 -56
-32 -117 -70z"/>
</g>
</svg>
